<svg xmlns="http://www.w3.org/2000/svg" width="200" height="200" viewBox="0 0 200 200">
  <rect width="200" height="200" rx="32" fill="#0d1117"/>
  <!-- Robot head -->
  <rect x="65" y="72" width="70" height="56" rx="12" fill="none" stroke="#22d3ee" stroke-width="2"/>
  <!-- Antenna -->
  <line x1="100" y1="72" x2="100" y2="55" stroke="#22d3ee" stroke-width="2" stroke-linecap="round"/>
  <circle cx="100" cy="50" r="5" fill="none" stroke="#22d3ee" stroke-width="1.5"/>
  <circle cx="100" cy="50" r="2" fill="#22d3ee" opacity="0.5"/>
  <!-- Eyes -->
  <circle cx="85" cy="95" r="7" fill="none" stroke="#22d3ee" stroke-width="1.5"/>
  <circle cx="115" cy="95" r="7" fill="none" stroke="#22d3ee" stroke-width="1.5"/>
  <circle cx="85" cy="95" r="3" fill="#22d3ee" opacity="0.6"/>
  <circle cx="115" cy="95" r="3" fill="#22d3ee" opacity="0.6"/>
  <!-- Mouth -->
  <line x1="88" y1="115" x2="112" y2="115" stroke="#22d3ee" stroke-width="1.5" stroke-linecap="round" opacity="0.5"/>
  <line x1="92" y1="115" x2="92" y2="119" stroke="#22d3ee" stroke-width="1" opacity="0.3"/>
  <line x1="100" y1="115" x2="100" y2="119" stroke="#22d3ee" stroke-width="1" opacity="0.3"/>
  <line x1="108" y1="115" x2="108" y2="119" stroke="#22d3ee" stroke-width="1" opacity="0.3"/>
  <!-- Ear bolts -->
  <circle cx="60" cy="95" r="4" fill="none" stroke="#22d3ee" stroke-width="1.5" opacity="0.5"/>
  <circle cx="140" cy="95" r="4" fill="none" stroke="#22d3ee" stroke-width="1.5" opacity="0.5"/>
  <!-- Chat bubble -->
  <path d="M120 140 L150 140 Q158 140 158 148 L158 162 Q158 170 150 170 L135 170 L128 178 L128 170 L120 170 Q112 170 112 162 L112 148 Q112 140 120 140" fill="none" stroke="#22d3ee" stroke-width="1.5" opacity="0.6"/>
  <!-- Chat dots -->
  <circle cx="125" cy="155" r="2" fill="#22d3ee" opacity="0.4"/>
  <circle cx="135" cy="155" r="2" fill="#22d3ee" opacity="0.4"/>
  <circle cx="145" cy="155" r="2" fill="#22d3ee" opacity="0.4"/>
</svg>
